<?xml version="1.0" ?>
<!-- Uploaded to: SVG Repo, www.svgrepo.com, Generator: SVG Repo Mixer Tools -->
<svg width="800px" height="800px" viewBox="0 0 64 64" id="svg5" version="1.1" xml:space="preserve" xmlns="http://www.w3.org/2000/svg" xmlns:svg="http://www.w3.org/2000/svg">
<defs id="defs2"/>
<g id="layer1" transform="translate(-384,-576)">
<path d="m 393.99999,585 h 49 v 6 h -49 z" id="path61078" style="fill:#3e4f59;fill-opacity:1;fill-rule:evenodd;stroke-width:2;stroke-linecap:round;stroke-linejoin:round;stroke-miterlimit:4.1"/>
<path d="m 393.99999,591 h 49 v 40 h -49 z" id="path61080" style="fill:#acbec2;fill-opacity:1;fill-rule:evenodd;stroke-width:2.00001;stroke-linecap:round;stroke-linejoin:round;stroke-miterlimit:4.1"/>
<path d="m 393.99999,591 v 40 h 29.76953 a 28.484051,41.392605 35.599482 0 0 18.625,-40 z" id="path61082" style="fill:#e8edee;fill-opacity:1;fill-rule:evenodd;stroke:none;stroke-width:2.00002;stroke-linecap:round;stroke-linejoin:round;stroke-miterlimit:4.1"/>
<path d="m 395.99999,584 c -1.64501,0 -3,1.355 -3,3 v 40 c 0,0.55229 0.44772,1 1,1 0.55229,0 1,-0.44771 1,-1 v -40 c 0,-0.56413 0.43587,-1 1,-1 h 45 c 0.56413,0 1,0.43587 1,1 v 3 h -42 c -0.55228,0 -1,0.44772 -1,1 0,0.55229 0.44772,1 1,1 h 42 v 37 c 0,0.56413 -0.43587,1 -1,1 h -49 c -0.55228,0 -1,0.44772 -1,1 0,0.55229 0.44772,1 1,1 h 49 c 1.64501,0 3,-1.35499 3,-3 0,-14 0,-28 0,-42 0,-1.645 -1.35499,-3 -3,-3 z" id="path61084" style="color:#000000;fill:#000000;fill-rule:evenodd;stroke-linecap:round;stroke-linejoin:round;stroke-miterlimit:4.1"/>
<path d="m 438.99999,587 c -0.55228,0 -1,0.44772 -1,1 0,0.55229 0.44772,1 1,1 0.55229,0 1,-0.44771 1,-1 0,-0.55228 -0.44771,-1 -1,-1 z" id="path61086" style="color:#000000;fill:#ed7161;fill-opacity:1;fill-rule:evenodd;stroke-linecap:round;stroke-linejoin:round;stroke-miterlimit:4.1;-inkscape-stroke:none"/>
<path d="m 434.99999,587 c -0.55228,0 -1,0.44772 -1,1 0,0.55229 0.44772,1 1,1 0.55229,0 1,-0.44771 1,-1 0,-0.55228 -0.44771,-1 -1,-1 z" id="path61088" style="color:#000000;fill:#ecba16;fill-opacity:1;fill-rule:evenodd;stroke-linecap:round;stroke-linejoin:round;stroke-miterlimit:4.1;-inkscape-stroke:none"/>
<path d="m 430.99999,587 c -0.55228,0 -1,0.44772 -1,1 0,0.55229 0.44772,1 1,1 0.55229,0 1,-0.44771 1,-1 0,-0.55228 -0.44771,-1 -1,-1 z" id="path61090" style="color:#000000;fill:#42b05c;fill-opacity:1;fill-rule:evenodd;stroke-linecap:round;stroke-linejoin:round;stroke-miterlimit:4.1;-inkscape-stroke:none"/>
<path d="m 388.99999,630 a 1,1 0 0 0 -1,1 1,1 0 0 0 1,1 1,1 0 0 0 1,-1 1,1 0 0 0 -1,-1 z" id="path61092" style="color:#000000;fill:#000000;fill-rule:evenodd;stroke-linecap:round;stroke-linejoin:round;stroke-miterlimit:4.1;-inkscape-stroke:none"/>
<path d="m 396.99999,590 c -0.55228,0 -1,0.44772 -1,1 0,0.55229 0.44772,1 1,1 0.55229,0 1,-0.44771 1,-1 0,-0.55228 -0.44771,-1 -1,-1 z" id="path61094" style="color:#000000;fill:#000000;fill-rule:evenodd;stroke-linecap:round;stroke-linejoin:round;stroke-miterlimit:4.1;-inkscape-stroke:none"/>
<path d="m 428,613.34548 v -8.26482 -6.60475 c -5.8e-4,-1.12748 -1.10532,-1.92325 -2.17493,-1.56666 l -12.69565,4.13044 c -0.67425,0.22494 -1.1291,0.85587 -1.12942,1.56666 v 12.34451 h 4 v -11.25053 l 8,-2 v 11.64515 z" id="path9700" style="color:#000000;fill:#0075d3;fill-opacity:1;fill-rule:evenodd;stroke:none;stroke-width:2;stroke-linecap:round;stroke-linejoin:round;stroke-miterlimit:4.1;stroke-dasharray:none;stroke-opacity:1"/>
<path d="m 417,601.9043 a 14.890609,9.3246174 0 0 0 -4.98828,0.55859 c -0.004,0.0476 -0.0117,0.0942 -0.0117,0.14258 v 12.3457 h 4 v -11.25 l 5.4668,-1.36719 A 14.890609,9.3246174 0 0 0 417,601.9043 Z M 424,603 v 10.3457 h 4 v -8.26562 -0.13281 A 14.890609,9.3246174 0 0 0 424,603 Z" id="path55455" style="fill:#0588e2;fill-opacity:1;fill-rule:evenodd;stroke:none;stroke-width:2;stroke-linecap:round;stroke-linejoin:round;stroke-miterlimit:4.1"/>
<g id="path3729-3">
<path d="m 402.5,623 a 1,1 0 0 0 -1,1 1,1 0 0 0 1,1 h 5.61719 a 1,1 0 0 0 1,-1 1,1 0 0 0 -1,-1 z m 9.5,0 a 1,1 0 0 0 -1,1 1,1 0 0 0 1,1 h 22.5 a 1,1 0 0 0 1,-1 1,1 0 0 0 -1,-1 z" id="path19480" style="color:#000000;fill:#000000;fill-rule:evenodd;stroke-linecap:round;stroke-linejoin:round;stroke-miterlimit:4.1;-inkscape-stroke:none"/>
</g>
<path d="m 428,624 a 2,2 0 0 1 -2,2 2,2 0 0 1 -2,-2 2,2 0 0 1 2,-2 2,2 0 0 1 2,2 z" id="path19470" style="color:#000000;fill:#0588e2;fill-opacity:1;fill-rule:evenodd;stroke-width:2;stroke-linecap:round;stroke-linejoin:round;stroke-miterlimit:4.1;-inkscape-stroke:none"/>
<path d="m 426,621 c -1.64501,0 -3,1.35499 -3,3 0,1.64501 1.35499,3 3,3 1.64501,0 3,-1.35499 3,-3 0,-1.64501 -1.35499,-3 -3,-3 z m 0,2 c 0.56413,0 1,0.43587 1,1 0,0.56413 -0.43587,1 -1,1 -0.56413,0 -1,-0.43587 -1,-1 0,-0.56413 0.43587,-1 1,-1 z" id="path19472" style="color:#000000;fill:#000000;fill-rule:evenodd;stroke-linecap:round;stroke-linejoin:round;stroke-miterlimit:4.1;-inkscape-stroke:none"/>
<path d="m 426.76758,595.86523 c -0.4064,-0.0703 -0.83555,-0.0451 -1.25781,0.0957 l -8.82422,2.87109 a 1,1 0 0 0 -0.64063,1.25977 1,1 0 0 0 1.25977,0.64062 l 8.83008,-2.87305 a 1.0001,1.0001 0 0 0 0.006,-0.002 c 0.45016,-0.15007 0.85914,0.14464 0.85938,0.61914 v 2.5586 a 1,1 0 0 0 1,1 1,1 0 0 0 1,-1 v -2.5586 a 1.0001,1.0001 0 0 0 0,-0.002 c -6.9e-4,-1.33534 -1.01321,-2.39857 -2.23242,-2.60938 z m -13.95508,4.22657 c -1.07868,0.35986 -1.81199,1.37653 -1.8125,2.51367 v 12.3457 a 1.0001,1.0001 0 0 0 1,1 h 4 a 1.0001,1.0001 0 0 0 1,-1 v -10.4707 l 6,-1.5 v 10.36523 a 1.0001,1.0001 0 0 0 1,1 h 4 a 1.0001,1.0001 0 0 0 1,-1 V 605 a 1,1 0 0 0 -1,-1 1,1 0 0 0 -1,1 v 7.3457 h -2 v -10.64453 a 1.0001,1.0001 0 0 0 -1.24219,-0.9707 l -8,2 A 1.0001,1.0001 0 0 0 415,603.70117 v 10.25 h -2 v -11.34375 -0.002 c 8.6e-4,-0.28368 0.17606,-0.52736 0.44531,-0.61719 a 1,1 0 0 0 0.63281,-1.26562 1,1 0 0 0 -1.26562,-0.63086 z" id="path19450" style="color:#000000;fill:#000000;fill-rule:evenodd;stroke-linecap:round;stroke-linejoin:round;stroke-miterlimit:4.1;-inkscape-stroke:none"/>
<path d="m 428,613.70033 c 0,1.42245 -1.81726,2.57557 -4.05898,2.57557 -2.24171,0 -4.05896,-1.15312 -4.05896,-2.57557 0,-1.42242 1.81725,-2.57554 4.05896,-2.57554 2.24172,0 4.05898,1.15312 4.05898,2.57554 z" id="ellipse9681" style="fill:#fe73c5;fill-opacity:1;fill-rule:evenodd;stroke:none;stroke-width:2;stroke-linecap:round;stroke-linejoin:round;stroke-miterlimit:4.1"/>
<path d="m 422.18359,612.375 c -0.72158,0 -1.39915,0.1206 -1.98632,0.33008 -0.20234,0.30618 -0.31446,0.6433 -0.31446,0.99609 0,1.42245 1.81689,2.57422 4.0586,2.57422 0.723,0 1.40031,-0.11983 1.98828,-0.33008 0.20197,-0.30595 0.3125,-0.64167 0.3125,-0.99414 0,-1.42243 -1.81688,-2.57617 -4.0586,-2.57617 z" id="path55540" style="fill:#fe93d3;fill-opacity:1;fill-rule:evenodd;stroke:none;stroke-width:2;stroke-linecap:round;stroke-linejoin:round;stroke-miterlimit:4.1"/>
<path d="m 416,614.70033 c 0,1.36531 -1.79086,2.47213 -4,2.47213 -2.20913,0 -4,-1.10682 -4,-2.47213 0,-1.36532 1.79087,-2.47213 4,-2.47213 2.20914,0 4,1.10681 4,2.47213 z" id="path9677" style="fill:#fe73c5;fill-opacity:1;fill-rule:evenodd;stroke:none;stroke-width:1.99999;stroke-linecap:round;stroke-linejoin:round;stroke-miterlimit:4.1"/>
<path d="m 410.24219,613.47852 c -0.71529,0 -1.38581,0.11703 -1.9668,0.32031 C 408.09825,614.07818 408,614.383 408,614.70117 c 0,1.36531 1.79087,2.47071 4,2.47071 0.7152,0 1.38586,-0.11514 1.9668,-0.31836 0.17743,-0.27956 0.27539,-0.5839 0.27539,-0.90235 0,-1.36532 -1.79086,-2.47265 -4,-2.47265 z" id="path55538" style="fill:#fe93d3;fill-opacity:1;fill-rule:evenodd;stroke:none;stroke-width:1.99999;stroke-linecap:round;stroke-linejoin:round;stroke-miterlimit:4.1"/>
<path d="m 423.94141,610.125 c -1.29232,0 -2.47744,0.32079 -3.40625,0.91016 -0.92882,0.58936 -1.65235,1.52894 -1.65235,2.66601 0,1.13708 0.72353,2.07469 1.65235,2.66406 0.92882,0.58938 2.11393,0.91016 3.40625,0.91016 1.29232,0 2.47742,-0.32078 3.40625,-0.91016 0.92882,-0.58937 1.65234,-1.52698 1.65234,-2.66406 0,-1.13707 -0.72352,-2.07665 -1.65234,-2.66601 -0.92883,-0.58937 -2.11393,-0.91016 -3.40625,-0.91016 z m 0,2 c 0.94939,0 1.79374,0.25486 2.33398,0.59766 0.54024,0.34279 0.72461,0.69316 0.72461,0.97851 0,0.28537 -0.18437,0.63377 -0.72461,0.97656 -0.54024,0.3428 -1.38459,0.59766 -2.33398,0.59766 -0.94939,0 -1.79376,-0.25486 -2.33399,-0.59766 -0.54023,-0.34279 -0.72461,-0.69118 -0.72461,-0.97656 0,-0.28535 0.18438,-0.63572 0.72461,-0.97851 0.54024,-0.3428 1.3846,-0.59766 2.33399,-0.59766 z" id="path19454" style="color:#000000;fill:#000000;fill-rule:evenodd;stroke-linecap:round;stroke-linejoin:round;stroke-miterlimit:4.1"/>
<path d="m 412,611.22852 c -1.27157,0 -2.43616,0.30609 -3.35352,0.87304 C 407.72913,612.66852 407,613.58129 407,614.70117 a 0.99999499,0.99999499 0 0 0 1,1 0.99999499,0.99999499 0 0 0 1,-1 c 0,-0.24543 0.16691,-0.57066 0.69727,-0.89844 0.53035,-0.32777 1.36517,-0.57421 2.30273,-0.57421 0.93757,0 1.77238,0.24644 2.30273,0.57421 0.53036,0.32778 0.69727,0.65301 0.69727,0.89844 0,0.24543 -0.16691,0.56871 -0.69727,0.89649 -0.53035,0.32778 -1.36517,0.57421 -2.30273,0.57421 -0.5023,0 -0.97433,-0.0673 -1.38672,-0.18359 a 0.99999499,0.99999499 0 0 0 -1.23437,0.69141 0.99999499,0.99999499 0 0 0 0.6914,1.23242 c 0.59831,0.16876 1.24849,0.25977 1.92969,0.25976 1.27157,0 2.43616,-0.30608 3.35352,-0.87304 0.91735,-0.56696 1.64648,-1.47778 1.64648,-2.59766 0,-1.11988 -0.72913,-2.03265 -1.64648,-2.59961 -0.91736,-0.56695 -2.08195,-0.87304 -3.35352,-0.87304 z" id="path19452" style="color:#000000;fill:#000000;fill-rule:evenodd;stroke-linecap:round;stroke-linejoin:round;stroke-miterlimit:4.1;-inkscape-stroke:none"/>
</g>
</svg>